<svg width="15" height="16" viewBox="0 0 15 16" fill="none" xmlns="http://www.w3.org/2000/svg">
<path d="M5.53525 7.00445C5.46369 6.99729 5.37782 6.99729 5.29911 7.00445C3.59597 6.9472 2.24349 5.55178 2.24349 3.83433C2.24349 2.08111 3.66038 0.657064 5.42076 0.657064C7.17398 0.657064 8.59803 2.08111 8.59803 3.83433C8.59087 5.55178 7.23838 6.9472 5.53525 7.00445Z" stroke="#0060D1" stroke-width="1.3" stroke-linecap="round" stroke-linejoin="round"/>
<path d="M10.7225 2.08761C12.1107 2.08761 13.2271 3.2111 13.2271 4.59221C13.2271 5.9447 12.1537 7.04672 10.8155 7.09682C10.7582 7.08966 10.6938 7.08966 10.6294 7.09682" stroke="#0060D1" stroke-width="1.3" stroke-linecap="round" stroke-linejoin="round"/>
<path d="M1.95588 9.64436C0.224125 10.8036 0.224125 12.6928 1.95588 13.8449C3.92378 15.1616 7.15114 15.1616 9.11905 13.8449C10.8508 12.6857 10.8508 10.7965 9.11905 9.64436C7.1583 8.33481 3.93094 8.33481 1.95588 9.64436Z" stroke="#0060D1" stroke-width="1.3" stroke-linecap="round" stroke-linejoin="round"/>
<path d="M12.1034 13.5379C12.6186 13.4305 13.1052 13.223 13.506 12.9153C14.6223 12.0781 14.6223 10.6969 13.506 9.85969C13.1124 9.55914 12.6329 9.35877 12.1249 9.24428" stroke="#0060D1" stroke-width="1.3" stroke-linecap="round" stroke-linejoin="round"/>
</svg>
