<svg width="604" height="194" viewBox="0 0 604 194" fill="none" xmlns="http://www.w3.org/2000/svg">
<path d="M3 54.8444L57.3636 135.093L111.727 149.772L166.091 32.078L220.455 3.71973L274.818 162.694L329.182 121.424L383.545 25.4396L437.909 84.5251L492.273 183.078L546.636 150.212L601 116.808V193.777H546.636H492.273H437.909H383.545H329.182H274.818H220.455H166.091H111.727H57.3636H3V54.8444Z" fill="#DA6727" fill-opacity="0.51"/>
<path d="M3 58.565C4.65685 58.565 6 56.8995 6 54.845C6 52.7905 4.65685 51.125 3 51.125C1.34315 51.125 0 52.7905 0 54.845C0 56.8995 1.34315 58.565 3 58.565Z" fill="#DA6727" fill-opacity="0.51"/>
<path d="M57.3633 138.813C59.0201 138.813 60.3633 137.148 60.3633 135.093C60.3633 133.039 59.0201 131.373 57.3633 131.373C55.7064 131.373 54.3633 133.039 54.3633 135.093C54.3633 137.148 55.7064 138.813 57.3633 138.813Z" fill="#DA6727" fill-opacity="0.51"/>
<path d="M111.727 153.492C113.383 153.492 114.727 151.826 114.727 149.772C114.727 147.717 113.383 146.052 111.727 146.052C110.07 146.052 108.727 147.717 108.727 149.772C108.727 151.826 110.07 153.492 111.727 153.492Z" fill="#DA6727" fill-opacity="0.51"/>
<path d="M166.092 35.7984C167.749 35.7984 169.092 34.1329 169.092 32.0784C169.092 30.0239 167.749 28.3584 166.092 28.3584C164.435 28.3584 163.092 30.0239 163.092 32.0784C163.092 34.1329 164.435 35.7984 166.092 35.7984Z" fill="#DA6727" fill-opacity="0.51"/>
<path d="M220.455 7.44C222.112 7.44 223.455 5.7745 223.455 3.72C223.455 1.6655 222.112 0 220.455 0C218.798 0 217.455 1.6655 217.455 3.72C217.455 5.7745 218.798 7.44 220.455 7.44Z" fill="#DA6727" fill-opacity="0.51"/>
<path d="M274.818 166.414C276.475 166.414 277.818 164.748 277.818 162.694C277.818 160.639 276.475 158.974 274.818 158.974C273.162 158.974 271.818 160.639 271.818 162.694C271.818 164.748 273.162 166.414 274.818 166.414Z" fill="#DA6727" fill-opacity="0.51"/>
<path d="M329.182 125.145C330.838 125.145 332.182 123.48 332.182 121.425C332.182 119.371 330.838 117.705 329.182 117.705C327.525 117.705 326.182 119.371 326.182 121.425C326.182 123.48 327.525 125.145 329.182 125.145Z" fill="#DA6727" fill-opacity="0.51"/>
<path d="M383.545 29.1597C385.202 29.1597 386.545 27.4942 386.545 25.4397C386.545 23.3852 385.202 21.7197 383.545 21.7197C381.888 21.7197 380.545 23.3852 380.545 25.4397C380.545 27.4942 381.888 29.1597 383.545 29.1597Z" fill="#DA6727" fill-opacity="0.51"/>
<path d="M437.908 88.2457C439.565 88.2457 440.908 86.5802 440.908 84.5257C440.908 82.4712 439.565 80.8057 437.908 80.8057C436.251 80.8057 434.908 82.4712 434.908 84.5257C434.908 86.5802 436.251 88.2457 437.908 88.2457Z" fill="#DA6727" fill-opacity="0.51"/>
<path d="M492.273 186.798C493.93 186.798 495.273 185.133 495.273 183.078C495.273 181.024 493.93 179.358 492.273 179.358C490.617 179.358 489.273 181.024 489.273 183.078C489.273 185.133 490.617 186.798 492.273 186.798Z" fill="#DA6727" fill-opacity="0.51"/>
<path d="M546.637 153.932C548.294 153.932 549.637 152.267 549.637 150.212C549.637 148.158 548.294 146.492 546.637 146.492C544.98 146.492 543.637 148.158 543.637 150.212C543.637 152.267 544.98 153.932 546.637 153.932Z" fill="#DA6727" fill-opacity="0.51"/>
<path d="M601 120.528C602.657 120.528 604 118.862 604 116.808C604 114.753 602.657 113.088 601 113.088C599.343 113.088 598 114.753 598 116.808C598 118.862 599.343 120.528 601 120.528Z" fill="#DA6727" fill-opacity="0.51"/>
</svg>
