<svg width="6" height="20" viewBox="0 0 6 20" fill="none" xmlns="http://www.w3.org/2000/svg">
<path d="M4.87179 2.82051C4.87179 1.69231 3.94872 0.769231 2.82051 0.769231C1.69231 0.769231 0.769231 1.69231 0.769231 2.82051C0.769231 3.94872 1.69231 4.87179 2.82051 4.87179C3.94872 4.87179 4.87179 3.94872 4.87179 2.82051Z" stroke="#292D32" stroke-width="1.5"/>
<path d="M4.87179 17.1795C4.87179 16.0513 3.94872 15.1282 2.82051 15.1282C1.69231 15.1282 0.769231 16.0513 0.769231 17.1795C0.769231 18.3077 1.69231 19.2308 2.82051 19.2308C3.94872 19.2308 4.87179 18.3077 4.87179 17.1795Z" stroke="#292D32" stroke-width="1.5"/>
<path d="M4.87179 10C4.87179 8.87179 3.94872 7.94872 2.82051 7.94872C1.69231 7.94872 0.769231 8.87179 0.769231 10C0.769231 11.1282 1.69231 12.0513 2.82051 12.0513C3.94872 12.0513 4.87179 11.1282 4.87179 10Z" stroke="#292D32" stroke-width="1.5"/>
</svg>
