<svg width="25" height="25" viewBox="0 0 25 25" fill="none" xmlns="http://www.w3.org/2000/svg">
<mask id="path-1-inside-1_0_512" fill="white">
<path d="M15.2403 9.34421C14.7117 9.34421 14.3204 9.47752 14.014 9.64591C13.9649 9.47128 13.8035 9.34343 13.6133 9.38163H11.287C11.057 9.34343 10.8707 9.52975 10.9416 9.77143V18.347C10.8707 18.5652 11.057 18.7523 11.287 18.7368H13.6133C13.8432 18.7523 14.0296 18.5652 14.0296 18.3353L14.0288 13.1525C14.028 13.1502 14.0194 12.9023 14.1761 12.7315C14.3016 12.5959 14.5176 12.5265 14.8162 12.5265C15.3136 12.5265 15.535 12.73 15.6176 13.1853V18.3353C15.5357 18.5652 15.7221 18.7523 15.952 18.7368H18.4039C18.6338 18.7523 18.8202 18.5652 18.7375 18.3353V13.0122C18.8194 10.3054 16.8915 9.34421 15.2403 9.34421ZM17.9868 17.9572H16.3683V13.1853C16.3683 12.2646 15.7735 11.6939 14.817 11.6939C14.2759 11.6939 13.8549 11.8529 13.5649 12.1663C13.1619 12.6029 13.1931 13.1564 13.2796 13.2796V17.9572H11.7033V10.1768H13.197V10.4388C13.1963 10.5168 13.2178 10.5934 13.2587 10.6598C13.2997 10.7262 13.3586 10.7797 13.4286 10.8142C13.4987 10.8486 13.577 10.8626 13.6546 10.8545C13.7322 10.8464 13.806 10.8166 13.8674 10.7685L13.9766 10.6843C14.2923 10.4356 14.6189 10.1776 15.2411 10.1776C15.885 10.1776 17.9876 10.3826 17.9876 13.013L17.9868 17.9572ZM8.60204 5.45715C7.72733 5.45715 7.01634 6.16814 7.01634 7.04285C7.01634 7.91755 7.72733 8.62854 8.60204 8.62854C9.47674 8.62854 10.1877 7.91755 10.1877 7.04285C10.1877 6.16814 9.47674 5.45715 8.60204 5.45715ZM8.60204 7.79593C8.18729 7.79593 7.84895 7.45759 7.84895 7.04285C7.84895 6.6281 8.18729 6.28976 8.60204 6.28976C9.01678 6.28976 9.35512 6.6281 9.35512 7.04285C9.35512 7.45759 9.01678 7.79593 8.60204 7.79593ZM9.7153 9.34343H7.40146C7.17148 9.34343 6.98516 9.52975 7.04285 9.77143V18.347C6.98516 18.5652 7.17148 18.7523 7.40146 18.7368H9.7153C9.94528 18.7523 10.1316 18.5652 10.1316 18.3353V9.75973C10.1316 9.64932 10.0877 9.54343 10.0097 9.46536C9.93159 9.38729 9.82571 9.34343 9.7153 9.34343ZM9.38163 17.9572H7.81776V10.1768H9.38163V17.9572Z"/>
</mask>
<path d="M15.2403 9.34421C14.7117 9.34421 14.3204 9.47752 14.014 9.64591C13.9649 9.47128 13.8035 9.34343 13.6133 9.38163H11.287C11.057 9.34343 10.8707 9.52975 10.9416 9.77143V18.347C10.8707 18.5652 11.057 18.7523 11.287 18.7368H13.6133C13.8432 18.7523 14.0296 18.5652 14.0296 18.3353L14.0288 13.1525C14.028 13.1502 14.0194 12.9023 14.1761 12.7315C14.3016 12.5959 14.5176 12.5265 14.8162 12.5265C15.3136 12.5265 15.535 12.73 15.6176 13.1853V18.3353C15.5357 18.5652 15.7221 18.7523 15.952 18.7368H18.4039C18.6338 18.7523 18.8202 18.5652 18.7375 18.3353V13.0122C18.8194 10.3054 16.8915 9.34421 15.2403 9.34421ZM17.9868 17.9572H16.3683V13.1853C16.3683 12.2646 15.7735 11.6939 14.817 11.6939C14.2759 11.6939 13.8549 11.8529 13.5649 12.1663C13.1619 12.6029 13.1931 13.1564 13.2796 13.2796V17.9572H11.7033V10.1768H13.197V10.4388C13.1963 10.5168 13.2178 10.5934 13.2587 10.6598C13.2997 10.7262 13.3586 10.7797 13.4286 10.8142C13.4987 10.8486 13.577 10.8626 13.6546 10.8545C13.7322 10.8464 13.806 10.8166 13.8674 10.7685L13.9766 10.6843C14.2923 10.4356 14.6189 10.1776 15.2411 10.1776C15.885 10.1776 17.9876 10.3826 17.9876 13.013L17.9868 17.9572ZM8.60204 5.45715C7.72733 5.45715 7.01634 6.16814 7.01634 7.04285C7.01634 7.91755 7.72733 8.62854 8.60204 8.62854C9.47674 8.62854 10.1877 7.91755 10.1877 7.04285C10.1877 6.16814 9.47674 5.45715 8.60204 5.45715ZM8.60204 7.79593C8.18729 7.79593 7.84895 7.45759 7.84895 7.04285C7.84895 6.6281 8.18729 6.28976 8.60204 6.28976C9.01678 6.28976 9.35512 6.6281 9.35512 7.04285C9.35512 7.45759 9.01678 7.79593 8.60204 7.79593ZM9.7153 9.34343H7.40146C7.17148 9.34343 6.98516 9.52975 7.04285 9.77143V18.347C6.98516 18.5652 7.17148 18.7523 7.40146 18.7368H9.7153C9.94528 18.7523 10.1316 18.5652 10.1316 18.3353V9.75973C10.1316 9.64932 10.0877 9.54343 10.0097 9.46536C9.93159 9.38729 9.82571 9.34343 9.7153 9.34343ZM9.38163 17.9572H7.81776V10.1768H9.38163V17.9572Z" fill="#FF3131"/>
<path d="M14.014 9.64591L12.513 10.0681L13.0445 11.9579L14.765 11.0123L14.014 9.64591ZM13.6133 9.38163V10.9408H13.7683L13.9202 10.9103L13.6133 9.38163ZM11.287 9.38163L11.0315 10.9197L11.1583 10.9408H11.287V9.38163ZM10.9416 9.77143H12.5008V9.54731L12.4377 9.33226L10.9416 9.77143ZM10.9416 18.347L12.4244 18.8289L12.5008 18.594V18.347H10.9416ZM11.287 18.7368V17.1776H11.2342L11.1815 17.1811L11.287 18.7368ZM13.6133 18.7368L13.7187 17.1811L13.6661 17.1776H13.6133V18.7368ZM14.0296 18.3353H15.5888L15.5888 18.335L14.0296 18.3353ZM14.0288 13.1525L15.588 13.1523L15.5879 12.8994L15.508 12.6595L14.0288 13.1525ZM14.1761 12.7315L13.0317 11.6726L13.0274 11.6772L14.1761 12.7315ZM15.6176 13.1853H17.1768V13.0449L17.1517 12.9068L15.6176 13.1853ZM15.6176 18.3353L17.0865 18.8581L17.1768 18.6045V18.3353H15.6176ZM15.952 18.7368V17.1776H15.8992L15.8466 17.1811L15.952 18.7368ZM18.4039 18.7368L18.5093 17.1811L18.4567 17.1776H18.4039V18.7368ZM18.7375 18.3353H17.1783V18.6069L17.2702 18.8625L18.7375 18.3353ZM18.7375 13.0122L17.1791 12.9651L17.1783 12.9886V13.0122H18.7375ZM17.9868 17.9572V19.5163H19.5457L19.546 17.9574L17.9868 17.9572ZM16.3683 17.9572H14.8092V19.5163H16.3683V17.9572ZM13.5649 12.1663L12.4205 11.1074L12.4193 11.1087L13.5649 12.1663ZM13.2796 13.2796H14.8388V12.7867L14.5554 12.3833L13.2796 13.2796ZM13.2796 17.9572V19.5163H14.8388V17.9572H13.2796ZM11.7033 17.9572H10.1441V19.5163H11.7033V17.9572ZM11.7033 10.1768V8.61763H10.1441V10.1768H11.7033ZM13.197 10.1768H14.7561V8.61763H13.197V10.1768ZM13.197 10.4388L14.7561 10.4509V10.4388H13.197ZM13.8674 10.7685L12.915 9.53396L12.9061 9.54098L13.8674 10.7685ZM13.9766 10.6843L14.9289 11.9189L14.9351 11.9141L14.9413 11.9092L13.9766 10.6843ZM17.9876 13.013L19.5467 13.0132V13.013H17.9876ZM9.7153 9.34343V10.9026V9.34343ZM7.04285 9.77143H8.60204V9.58791L8.55942 9.4094L7.04285 9.77143ZM7.04285 18.347L8.55028 18.7453L8.60204 18.5495V18.347H7.04285ZM7.40146 18.7368V17.1776H7.34867L7.296 17.1811L7.40146 18.7368ZM9.7153 18.7368L9.82076 17.1811L9.76809 17.1776H9.7153V18.7368ZM9.38163 17.9572V19.5163H10.9408V17.9572H9.38163ZM7.81776 17.9572H6.25858V19.5163H7.81776V17.9572ZM7.81776 10.1768V8.61763H6.25858V10.1768H7.81776ZM9.38163 10.1768H10.9408V8.61763H9.38163V10.1768ZM15.2403 7.78502C14.4252 7.78502 13.7775 7.99672 13.263 8.27951L14.765 11.0123C14.8226 10.9807 14.8813 10.9557 14.9487 10.9376C15.016 10.9195 15.1097 10.9034 15.2403 10.9034V7.78502ZM15.5149 9.22377C15.2925 8.43306 14.4568 7.62192 13.3063 7.85296L13.9202 10.9103C13.1502 11.0649 12.6372 10.5095 12.513 10.0681L15.5149 9.22377ZM13.6133 7.82244H11.287V10.9408H13.6133V7.82244ZM11.5424 7.84352C10.9456 7.74437 10.3027 7.92972 9.85561 8.41414C9.39311 8.91529 9.26615 9.59951 9.44554 10.2106L12.4377 9.33226C12.5461 9.70167 12.4768 10.1719 12.1472 10.529C11.8331 10.8694 11.3984 10.9807 11.0315 10.9197L11.5424 7.84352ZM9.38241 9.77143V18.347H12.5008V9.77143H9.38241ZM9.45876 17.865C9.24042 18.5368 9.42595 19.2208 9.8549 19.6862C10.2594 20.1251 10.833 20.3303 11.3924 20.2924L11.1815 17.1811C11.511 17.1588 11.8764 17.2782 12.148 17.5729C12.444 17.8941 12.5718 18.3753 12.4244 18.8289L9.45876 17.865ZM11.287 20.2959H13.6133V17.1776H11.287V20.2959ZM13.5078 20.2924C14.7047 20.3735 15.5888 19.4 15.5888 18.3353H12.4704C12.4704 17.7305 12.9818 17.1312 13.7187 17.1811L13.5078 20.2924ZM15.5888 18.335L15.588 13.1523L12.4696 13.1528L12.4704 18.3355L15.5888 18.335ZM15.508 12.6595C15.5388 12.7519 15.5537 12.8266 15.5586 12.8511C15.5653 12.8853 15.5695 12.913 15.5719 12.9291C15.5766 12.9615 15.5792 12.9872 15.5804 12.999C15.5829 13.0247 15.5842 13.0448 15.5848 13.0533C15.586 13.0729 15.5866 13.0884 15.5869 13.0964C15.5875 13.1145 15.5876 13.1293 15.5877 13.1401C15.5877 13.1626 15.587 13.1827 15.586 13.2008C15.5839 13.236 15.5795 13.2764 15.5701 13.3219C15.5551 13.3942 15.5051 13.5895 15.3248 13.7858L13.0274 11.6772C12.6905 12.0443 12.5664 12.4489 12.5167 12.6885C12.4899 12.8176 12.478 12.9311 12.4729 13.0187C12.4703 13.0631 12.4693 13.1042 12.4693 13.1414C12.4693 13.1596 12.4696 13.1801 12.4703 13.2022C12.4706 13.2122 12.4713 13.2292 12.4726 13.2499C12.4732 13.259 12.4745 13.2795 12.4771 13.3055C12.4783 13.3175 12.4809 13.3432 12.4857 13.3757C12.488 13.3919 12.4923 13.4197 12.499 13.4539C12.5038 13.4784 12.5188 13.5531 12.5496 13.6456L15.508 12.6595ZM15.3206 13.7905C15.1648 13.9588 15.0001 14.0331 14.9072 14.0629C14.8202 14.0908 14.7799 14.0857 14.8162 14.0857V10.9673C14.3407 10.9673 13.5907 11.0684 13.0317 11.6726L15.3206 13.7905ZM14.8162 14.0857C14.8742 14.0857 14.6317 14.1 14.3675 13.8773C14.1048 13.6558 14.0743 13.4133 14.0835 13.4637L17.1517 12.9068C17.0782 12.5019 16.8957 11.93 16.3774 11.493C15.8574 11.0547 15.2555 10.9673 14.8162 10.9673V14.0857ZM14.0584 13.1853V18.3353H17.1768V13.1853H14.0584ZM14.1487 17.8124C13.9183 18.4597 14.0571 19.1605 14.5001 19.6613C14.9117 20.1264 15.5007 20.3301 16.0575 20.2924L15.8466 17.1811C16.1735 17.159 16.5543 17.2769 16.8356 17.5949C17.1485 17.9485 17.235 18.4408 17.0865 18.8581L14.1487 17.8124ZM15.952 20.2959H18.4039V17.1776H15.952V20.2959ZM18.2984 20.2924C18.855 20.3301 19.4446 20.1266 19.8564 19.6604C20.3003 19.1579 20.4375 18.4553 20.2049 17.808L17.2702 18.8625C17.1202 18.4452 17.2055 17.9511 17.5194 17.5958C17.8013 17.2767 18.1827 17.159 18.5093 17.1811L18.2984 20.2924ZM20.2967 18.3353V13.0122H17.1783V18.3353H20.2967ZM20.296 13.0593C20.3495 11.2907 19.7303 9.89815 18.6509 8.97709C17.6237 8.10067 16.3385 7.78502 15.2403 7.78502V10.9034C15.7932 10.9034 16.2975 11.0684 16.6267 11.3493C16.9036 11.5855 17.2074 12.0269 17.1791 12.9651L20.296 13.0593ZM17.9868 16.398H16.3683V19.5163H17.9868V16.398ZM17.9275 17.9572V13.1853H14.8092V17.9572H17.9275ZM17.9275 13.1853C17.9275 12.3803 17.6589 11.5727 17.0316 10.97C16.4115 10.3742 15.6039 10.1347 14.817 10.1347V13.2531C14.9022 13.2531 14.9386 13.2658 14.939 13.266C14.939 13.266 14.931 13.2631 14.9178 13.255C14.9044 13.2469 14.888 13.2349 14.8711 13.2187C14.8542 13.2024 14.8395 13.1846 14.8278 13.1668C14.8162 13.1492 14.8095 13.1347 14.8061 13.1259C14.7992 13.1079 14.8092 13.1227 14.8092 13.1853H17.9275ZM14.817 10.1347C13.9642 10.1347 13.0798 10.3949 12.4205 11.1074L14.7093 13.2253C14.6979 13.2376 14.6843 13.2493 14.6701 13.2587C14.6562 13.2679 14.6473 13.2714 14.6474 13.2713C14.6485 13.2709 14.697 13.2531 14.817 13.2531V10.1347ZM12.4193 11.1087C11.9761 11.5887 11.7687 12.1374 11.6973 12.6055C11.6619 12.8377 11.6564 13.0716 11.6821 13.2942C11.7006 13.4537 11.7568 13.8244 12.0038 14.1759L14.5554 12.3833C14.6753 12.554 14.7252 12.7041 14.7437 12.7656C14.7666 12.8417 14.7758 12.9007 14.7799 12.9359C14.788 13.0065 14.7837 13.0516 14.78 13.0755C14.7722 13.1268 14.7507 13.1805 14.7105 13.224L12.4193 11.1087ZM11.7204 13.2796V17.9572H14.8388V13.2796H11.7204ZM13.2796 16.398H11.7033V19.5163H13.2796V16.398ZM13.2624 17.9572V10.1768H10.1441V17.9572H13.2624ZM11.7033 11.736H13.197V8.61763H11.7033V11.736ZM11.6378 10.1768V10.4388H14.7561V10.1768H11.6378ZM11.6378 10.4266C11.6349 10.798 11.7369 11.1626 11.9319 11.4787L14.5856 9.84095C14.6987 10.0242 14.7578 10.2356 14.7561 10.4509L11.6378 10.4266ZM11.9319 11.4787C12.1269 11.7947 12.4072 12.0493 12.7405 12.2133L14.1168 9.41506C14.31 9.5101 14.4725 9.65772 14.5856 9.84095L11.9319 11.4787ZM12.7405 12.2133C13.0737 12.3772 13.4465 12.4438 13.8159 12.4053L13.4933 9.3037C13.7075 9.28142 13.9236 9.32002 14.1168 9.41506L12.7405 12.2133ZM13.8159 12.4053C14.1853 12.3669 14.5364 12.2251 14.8288 11.9961L12.9061 9.54098C13.0756 9.40822 13.2791 9.32597 13.4933 9.3037L13.8159 12.4053ZM14.8198 12.0031L14.9289 11.9189L13.0242 9.4498L12.915 9.53399L14.8198 12.0031ZM14.9413 11.9092C15.026 11.8425 15.0706 11.8078 15.1124 11.7787C15.1487 11.7534 15.1651 11.7451 15.1694 11.743C15.1716 11.7419 15.1707 11.7423 15.1723 11.7419C15.1746 11.7414 15.1949 11.7368 15.2411 11.7368V8.61841C14.0592 8.61841 13.3724 9.1754 13.0118 9.45947L14.9413 11.9092ZM15.2411 11.7368C15.4487 11.7368 15.7867 11.7789 16.0275 11.9299C16.1255 11.9913 16.2073 12.0701 16.2727 12.193C16.3403 12.32 16.4284 12.566 16.4284 13.013H19.5467C19.5467 11.1999 18.777 9.97317 17.6841 9.28791C16.7126 8.67877 15.6773 8.61841 15.2411 8.61841V11.7368ZM16.4284 13.0127L16.4276 17.9569L19.546 17.9574L19.5467 13.0132L16.4284 13.0127ZM8.60204 3.89797C6.86622 3.89797 5.45715 5.30703 5.45715 7.04285H8.57553C8.57553 7.03714 8.57638 7.03519 8.57684 7.03411C8.57774 7.03198 8.57982 7.02836 8.58369 7.0245C8.58755 7.02064 8.59117 7.01855 8.5933 7.01765C8.59437 7.0172 8.59633 7.01634 8.60204 7.01634V3.89797ZM5.45715 7.04285C5.45715 8.77867 6.86622 10.1877 8.60204 10.1877V7.06935C8.59633 7.06935 8.59437 7.0685 8.5933 7.06804C8.59117 7.06714 8.58755 7.06506 8.58369 7.0612C8.57982 7.05733 8.57774 7.05371 8.57684 7.05158C8.57638 7.05051 8.57553 7.04855 8.57553 7.04285H5.45715ZM8.60204 10.1877C10.3379 10.1877 11.7469 8.77867 11.7469 7.04285H8.62854C8.62854 7.04855 8.62769 7.05051 8.62723 7.05158C8.62633 7.05371 8.62425 7.05733 8.62038 7.0612C8.61652 7.06506 8.6129 7.06714 8.61077 7.06804C8.6097 7.0685 8.60774 7.06935 8.60204 7.06935V10.1877ZM11.7469 7.04285C11.7469 5.30703 10.3379 3.89797 8.60204 3.89797V7.01634C8.60774 7.01634 8.6097 7.0172 8.61077 7.01765C8.6129 7.01855 8.61652 7.02064 8.62038 7.0245C8.62425 7.02836 8.62633 7.03198 8.62723 7.03411C8.62769 7.03519 8.62854 7.03714 8.62854 7.04285H11.7469ZM8.60204 6.23675C9.04841 6.23675 9.40814 6.59648 9.40814 7.04285H6.28976C6.28976 8.31871 7.32618 9.35512 8.60204 9.35512V6.23675ZM9.40814 7.04285C9.40814 7.48922 9.04841 7.84895 8.60204 7.84895V4.73057C7.32618 4.73057 6.28976 5.76699 6.28976 7.04285H9.40814ZM8.60204 7.84895C8.15566 7.84895 7.79594 7.48922 7.79594 7.04285H10.9143C10.9143 5.76699 9.87789 4.73057 8.60204 4.73057V7.84895ZM7.79594 7.04285C7.79594 6.59648 8.15566 6.23675 8.60204 6.23675V9.35512C9.87789 9.35512 10.9143 8.31871 10.9143 7.04285H7.79594ZM9.7153 7.78424H7.40146V10.9026H9.7153V7.78424ZM7.40146 7.78424C6.87016 7.78424 6.33099 8.00022 5.94787 8.43213C5.54356 8.88792 5.37883 9.51577 5.52627 10.1334L8.55942 9.4094C8.64918 9.78541 8.54877 10.1993 8.28069 10.5015C8.0338 10.7798 7.70278 10.9026 7.40146 10.9026V7.78424ZM5.48366 9.77143V18.347H8.60204V9.77143H5.48366ZM5.53542 17.9486C5.14566 19.4233 6.45573 20.3636 7.50693 20.2924L7.296 17.1811C7.62989 17.1585 7.98532 17.2811 8.24774 17.5589C8.52638 17.8539 8.66779 18.3007 8.55028 18.7453L5.53542 17.9486ZM7.40146 20.2959H9.7153V17.1776H7.40146V20.2959ZM9.60983 20.2924C10.8067 20.3735 11.6908 19.4 11.6908 18.3353H8.57241C8.57241 17.7305 9.08384 17.1312 9.82076 17.1811L9.60983 20.2924ZM11.6908 18.3353V9.75973H8.57241V18.3353H11.6908ZM11.6908 9.75973C11.6908 9.2358 11.4827 8.73333 11.1122 8.36285L8.90715 10.5679C8.69282 10.3535 8.57241 10.0628 8.57241 9.75973H11.6908ZM11.1122 8.36285C10.7417 7.99237 10.2392 7.78424 9.7153 7.78424V10.9026C9.41219 10.9026 9.12149 10.7822 8.90715 10.5679L11.1122 8.36285ZM9.38163 16.398H7.81776V19.5163H9.38163V16.398ZM9.37695 17.9572V10.1768H6.25858V17.9572H9.37695ZM7.81776 11.736H9.38163V8.61763H7.81776V11.736ZM7.82244 10.1768V17.9572H10.9408V10.1768H7.82244Z" fill="#FF3131" mask="url(#path-1-inside-1_0_512)"/>
<mask id="path-3-inside-2_0_512" fill="white">
<path d="M12.5 0C5.60684 0 0 5.60684 0 12.5C0 19.3932 5.60684 25 12.5 25C19.3932 25 25 19.3932 25 12.5C25 5.60684 19.3932 0 12.5 0ZM12.5 24.1674C6.0668 24.1674 0.832606 18.9332 0.832606 12.5C0.832606 6.0668 6.0668 0.832606 12.5 0.832606C18.9332 0.832606 24.1674 6.0668 24.1674 12.5C24.1674 18.9332 18.9332 24.1674 12.5 24.1674Z"/>
</mask>
<path d="M12.5 0C5.60684 0 0 5.60684 0 12.5C0 19.3932 5.60684 25 12.5 25C19.3932 25 25 19.3932 25 12.5C25 5.60684 19.3932 0 12.5 0ZM12.5 24.1674C6.0668 24.1674 0.832606 18.9332 0.832606 12.5C0.832606 6.0668 6.0668 0.832606 12.5 0.832606C18.9332 0.832606 24.1674 6.0668 24.1674 12.5C24.1674 18.9332 18.9332 24.1674 12.5 24.1674Z" fill="#FF3131"/>
<path d="M12.5 -1.55919C4.74572 -1.55919 -1.55919 4.74572 -1.55919 12.5H1.55919C1.55919 6.46795 6.46795 1.55919 12.5 1.55919V-1.55919ZM-1.55919 12.5C-1.55919 20.2543 4.74572 26.5592 12.5 26.5592V23.4408C6.46795 23.4408 1.55919 18.5321 1.55919 12.5H-1.55919ZM12.5 26.5592C20.2543 26.5592 26.5592 20.2543 26.5592 12.5H23.4408C23.4408 18.5321 18.5321 23.4408 12.5 23.4408V26.5592ZM26.5592 12.5C26.5592 4.74572 20.2543 -1.55919 12.5 -1.55919V1.55919C18.5321 1.55919 23.4408 6.46795 23.4408 12.5H26.5592ZM12.5 22.6082C6.92791 22.6082 2.39179 18.0721 2.39179 12.5H-0.726581C-0.726581 19.7943 5.20568 25.7266 12.5 25.7266V22.6082ZM2.39179 12.5C2.39179 6.92791 6.92791 2.39179 12.5 2.39179V-0.726581C5.20568 -0.726581 -0.726581 5.20568 -0.726581 12.5H2.39179ZM12.5 2.39179C18.0721 2.39179 22.6082 6.92791 22.6082 12.5H25.7266C25.7266 5.20568 19.7943 -0.726581 12.5 -0.726581V2.39179ZM22.6082 12.5C22.6082 18.0721 18.0721 22.6082 12.5 22.6082V25.7266C19.7943 25.7266 25.7266 19.7943 25.7266 12.5H22.6082Z" fill="#FF3131" mask="url(#path-3-inside-2_0_512)"/>
</svg>
