<svg width="24" height="24" viewBox="0 0 24 24" fill="none" xmlns="http://www.w3.org/2000/svg">
<path d="M12 7.90014C11.1891 7.90014 10.3964 8.1406 9.72218 8.59111C9.04794 9.04163 8.52243 9.68196 8.21211 10.4311C7.90179 11.1803 7.8206 12.0047 7.9788 12.8C8.13699 13.5953 8.52748 14.3259 9.10088 14.8993C9.67427 15.4727 10.4048 15.8632 11.2001 16.0214C11.9955 16.1796 12.8198 16.0984 13.569 15.788C14.3182 15.4777 14.9585 14.9522 15.409 14.278C15.8596 13.6037 16.1 12.811 16.1 12.0001C16.1013 11.4613 15.9962 10.9276 15.7906 10.4296C15.585 9.93155 15.2831 9.47904 14.9021 9.09806C14.5211 8.71708 14.0686 8.41512 13.5706 8.20954C13.0725 8.00397 12.5388 7.89882 12 7.90014ZM12 14.6701C11.4719 14.6701 10.9557 14.5135 10.5166 14.2202C10.0776 13.9268 9.73534 13.5098 9.53326 13.0219C9.33117 12.534 9.2783 11.9972 9.38132 11.4792C9.48434 10.9613 9.73863 10.4856 10.112 10.1122C10.4854 9.73876 10.9612 9.48446 11.4791 9.38144C11.9971 9.27842 12.5339 9.33129 13.0218 9.53338C13.5097 9.73546 13.9267 10.0777 14.22 10.5168C14.5134 10.9558 14.67 11.4721 14.67 12.0001C14.67 12.7083 14.3887 13.3874 13.888 13.8881C13.3873 14.3888 12.7081 14.6701 12 14.6701ZM17.23 7.73014C17.23 7.92792 17.1714 8.12126 17.0615 8.28571C16.9516 8.45016 16.7954 8.57833 16.6127 8.65402C16.43 8.7297 16.2289 8.74951 16.0349 8.71092C15.8409 8.67234 15.6628 8.5771 15.5229 8.43724C15.3831 8.29739 15.2878 8.11921 15.2492 7.92523C15.2106 7.73125 15.2304 7.53018 15.3061 7.34745C15.3818 7.16473 15.51 7.00855 15.6744 6.89867C15.8389 6.78879 16.0322 6.73014 16.23 6.73014C16.4952 6.73014 16.7496 6.83549 16.9371 7.02303C17.1247 7.21057 17.23 7.46492 17.23 7.73014ZM19.94 8.73014C19.9691 7.48696 19.5054 6.28273 18.65 5.38014C17.7522 4.51382 16.5474 4.03909 15.3 4.06014C14 4.00014 10 4.00014 8.70001 4.06014C7.45722 4.03323 6.25379 4.49664 5.35001 5.35014C4.49465 6.25273 4.03093 7.45696 4.06001 8.70014C4.00001 10.0001 4.00001 14.0001 4.06001 15.3001C4.03093 16.5433 4.49465 17.7475 5.35001 18.6501C6.25379 19.5036 7.45722 19.967 8.70001 19.9401C10.02 20.0201 13.98 20.0201 15.3 19.9401C16.5432 19.9692 17.7474 19.5055 18.65 18.6501C19.5054 17.7475 19.9691 16.5433 19.94 15.3001C20 14.0001 20 10.0001 19.94 8.70014V8.73014ZM18.24 16.7301C18.1042 17.0741 17.8993 17.3865 17.6378 17.6479C17.3763 17.9094 17.064 18.1144 16.72 18.2501C15.1676 18.564 13.5806 18.6716 12 18.5701C10.4228 18.6718 8.83902 18.5642 7.29001 18.2501C6.94608 18.1144 6.63369 17.9094 6.37223 17.6479C6.11076 17.3865 5.90579 17.0741 5.77001 16.7301C5.35001 15.6701 5.44001 13.1701 5.44001 12.0101C5.44001 10.8501 5.35001 8.34014 5.77001 7.29014C5.90196 6.9428 6.10547 6.6271 6.36733 6.36351C6.62919 6.09993 6.94355 5.89435 7.29001 5.76014C8.83902 5.44611 10.4228 5.33851 12 5.44014C13.5806 5.33868 15.1676 5.44628 16.72 5.76014C17.064 5.89591 17.3763 6.10088 17.6378 6.36235C17.8993 6.62381 18.1042 6.9362 18.24 7.28014C18.66 8.34014 18.56 10.8401 18.56 12.0001C18.56 13.1601 18.66 15.6701 18.24 16.7201V16.7301Z" fill="#FF3131"/>
</svg>
