<svg width="22" height="22" viewBox="0 0 22 22" fill="none" xmlns="http://www.w3.org/2000/svg">
<path d="M10.995 4.40829H21.2229" stroke="#6F6F6F" stroke-width="1.5" stroke-miterlimit="10" stroke-linecap="round" stroke-linejoin="round"/>
<path d="M13.2656 0.767093H18.9523C20.7729 0.767093 21.2229 1.21712 21.2229 3.01723V7.22091C21.2229 9.02102 20.7729 9.47105 18.9523 9.47105H13.2656C11.445 9.47105 10.995 9.02102 10.995 7.22091V3.01723C10.995 1.21712 11.445 0.767093 13.2656 0.767093Z" stroke="#6F6F6F" stroke-width="1.5" stroke-linecap="round" stroke-linejoin="round"/>
<path d="M0.767093 16.1704H10.995" stroke="#6F6F6F" stroke-width="1.5" stroke-miterlimit="10" stroke-linecap="round" stroke-linejoin="round"/>
<path d="M3.03769 12.5292H8.72441C10.545 12.5292 10.995 12.9792 10.995 14.7793V18.983C10.995 20.7831 10.545 21.2331 8.72441 21.2331H3.03769C1.21712 21.2331 0.767093 20.7831 0.767093 18.983V14.7793C0.767093 12.9792 1.21712 12.5292 3.03769 12.5292Z" stroke="#6F6F6F" stroke-width="1.5" stroke-linecap="round" stroke-linejoin="round"/>
<path d="M21.2229 14.0634C21.2229 18.0216 18.0216 21.2229 14.0634 21.2229L15.1373 19.433" stroke="#6F6F6F" stroke-width="1.5" stroke-linecap="round" stroke-linejoin="round"/>
<path d="M0.767093 7.92663C0.767093 3.96843 3.96843 0.767093 7.92663 0.767093L6.85271 2.55698" stroke="#6F6F6F" stroke-width="1.5" stroke-linecap="round" stroke-linejoin="round"/>
</svg>
