<svg width="604" height="190" viewBox="0 0 604 190" fill="none" xmlns="http://www.w3.org/2000/svg">
<path d="M3 118.73L57.3636 50.8377L111.727 59.9622L166.091 74.1239L220.455 40.4743L274.818 153.436L329.182 114.449L383.545 83.9507L437.909 3.71973L492.273 97.3725L546.636 171.08L601 173.056V189.11H546.636H492.273H437.909H383.545H329.182H274.818H220.455H166.091H111.727H57.3636H3V118.73Z" fill="#009A49" fill-opacity="0.27"/>
<path d="M3 122.451C4.65685 122.451 6 120.785 6 118.731C6 116.676 4.65685 115.011 3 115.011C1.34315 115.011 0 116.676 0 118.731C0 120.785 1.34315 122.451 3 122.451Z" fill="#009A49" fill-opacity="0.27"/>
<path d="M57.3633 54.5582C59.0201 54.5582 60.3633 52.8927 60.3633 50.8382C60.3633 48.7837 59.0201 47.1182 57.3633 47.1182C55.7064 47.1182 54.3633 48.7837 54.3633 50.8382C54.3633 52.8927 55.7064 54.5582 57.3633 54.5582Z" fill="#009A49" fill-opacity="0.27"/>
<path d="M111.727 63.6822C113.383 63.6822 114.727 62.0167 114.727 59.9622C114.727 57.9077 113.383 56.2422 111.727 56.2422C110.07 56.2422 108.727 57.9077 108.727 59.9622C108.727 62.0167 110.07 63.6822 111.727 63.6822Z" fill="#009A49" fill-opacity="0.27"/>
<path d="M166.092 77.8443C167.749 77.8443 169.092 76.1788 169.092 74.1243C169.092 72.0698 167.749 70.4043 166.092 70.4043C164.435 70.4043 163.092 72.0698 163.092 74.1243C163.092 76.1788 164.435 77.8443 166.092 77.8443Z" fill="#009A49" fill-opacity="0.27"/>
<path d="M220.455 44.1949C222.112 44.1949 223.455 42.5294 223.455 40.4749C223.455 38.4204 222.112 36.7549 220.455 36.7549C218.798 36.7549 217.455 38.4204 217.455 40.4749C217.455 42.5294 218.798 44.1949 220.455 44.1949Z" fill="#009A49" fill-opacity="0.27"/>
<path d="M274.818 157.157C276.475 157.157 277.818 155.491 277.818 153.437C277.818 151.382 276.475 149.717 274.818 149.717C273.162 149.717 271.818 151.382 271.818 153.437C271.818 155.491 273.162 157.157 274.818 157.157Z" fill="#009A49" fill-opacity="0.27"/>
<path d="M329.182 118.169C330.838 118.169 332.182 116.504 332.182 114.449C332.182 112.395 330.838 110.729 329.182 110.729C327.525 110.729 326.182 112.395 326.182 114.449C326.182 116.504 327.525 118.169 329.182 118.169Z" fill="#009A49" fill-opacity="0.27"/>
<path d="M383.545 87.6714C385.202 87.6714 386.545 86.0059 386.545 83.9514C386.545 81.8969 385.202 80.2314 383.545 80.2314C381.888 80.2314 380.545 81.8969 380.545 83.9514C380.545 86.0059 381.888 87.6714 383.545 87.6714Z" fill="#009A49" fill-opacity="0.27"/>
<path d="M437.908 7.44C439.565 7.44 440.908 5.7745 440.908 3.72C440.908 1.6655 439.565 0 437.908 0C436.251 0 434.908 1.6655 434.908 3.72C434.908 5.7745 436.251 7.44 437.908 7.44Z" fill="#009A49" fill-opacity="0.27"/>
<path d="M492.273 101.092C493.93 101.092 495.273 99.4268 495.273 97.3723C495.273 95.3178 493.93 93.6523 492.273 93.6523C490.617 93.6523 489.273 95.3178 489.273 97.3723C489.273 99.4268 490.617 101.092 492.273 101.092Z" fill="#009A49" fill-opacity="0.27"/>
<path d="M546.637 174.8C548.294 174.8 549.637 173.135 549.637 171.08C549.637 169.026 548.294 167.36 546.637 167.36C544.98 167.36 543.637 169.026 543.637 171.08C543.637 173.135 544.98 174.8 546.637 174.8Z" fill="#009A49" fill-opacity="0.27"/>
<path d="M601 176.776C602.657 176.776 604 175.11 604 173.056C604 171.001 602.657 169.336 601 169.336C599.343 169.336 598 171.001 598 173.056C598 175.11 599.343 176.776 601 176.776Z" fill="#009A49" fill-opacity="0.27"/>
</svg>
