<svg width="56" height="56" viewBox="0 0 56 56" fill="none" xmlns="http://www.w3.org/2000/svg">
<path d="M27.808 30.77L24.093 26.312C23.9957 26.1952 23.9337 26.053 23.9143 25.9022C23.8948 25.7514 23.9188 25.5981 23.9833 25.4605C24.0479 25.3228 24.1503 25.2063 24.2787 25.1248C24.407 25.0432 24.556 24.9999 24.708 25H31.292C31.444 25.0001 31.5928 25.0436 31.721 25.1252C31.8492 25.2068 31.9515 25.3233 32.0159 25.4609C32.0803 25.5986 32.1042 25.7517 32.0847 25.9024C32.0653 26.0532 32.0033 26.1952 31.906 26.312L28.192 30.77C28.1686 30.7981 28.1392 30.8208 28.106 30.8363C28.0728 30.8518 28.0366 30.8599 28 30.8599C27.9634 30.8599 27.9272 30.8518 27.894 30.8363C27.8608 30.8208 27.8315 30.7981 27.808 30.77Z" fill="#222227"/>
</svg>
