<svg width="19" height="19" viewBox="0 0 19 19" fill="none" xmlns="http://www.w3.org/2000/svg">
<path d="M18.2694 0.263173C18.0929 0.146409 17.8954 0.0662341 17.6885 0.0272285C17.4815 -0.0117772 17.269 -0.00884926 17.0632 0.0358449C16.8573 0.080539 16.6621 0.166124 16.4887 0.28771C16.3153 0.409296 16.1671 0.564501 16.0526 0.744458L8.36967 12.8117C7.69566 13.8704 6.22452 14.0539 5.31109 13.1933L2.69085 10.7246C2.53631 10.579 2.35514 10.4658 2.15768 10.3916C1.96023 10.3173 1.75035 10.2834 1.54003 10.2918C1.11528 10.3088 0.714539 10.4969 0.425957 10.815C0.137375 11.133 -0.0154045 11.5548 0.00122882 11.9876C0.0178621 12.4204 0.202545 12.8288 0.51465 13.1229L6.23998 18.5168C6.25722 18.533 6.27473 18.5489 6.29268 18.5644C6.34263 18.6075 6.44999 18.6986 6.50735 18.7366C6.68393 18.8534 6.88137 18.9337 7.0884 18.9727C7.29543 19.0118 7.50798 19.0089 7.7139 18.9642C7.91983 18.9195 8.11509 18.8339 8.28852 18.7122C8.46196 18.5906 8.61017 18.4353 8.72469 18.2553L18.7417 2.52206C18.8563 2.34215 18.935 2.141 18.9733 1.9301C19.0116 1.7192 19.0087 1.50268 18.9648 1.29291C18.921 1.08314 18.837 0.884229 18.7176 0.707544C18.5983 0.53086 18.446 0.37986 18.2694 0.263173Z" fill="white"/>
</svg>
