<svg width="17" height="15" viewBox="0 0 17 15" fill="none" xmlns="http://www.w3.org/2000/svg">
<path d="M15.75 3.375H11.25" stroke="#FF3535" stroke-width="1.5" stroke-miterlimit="10" stroke-linecap="round" stroke-linejoin="round"/>
<path d="M3.75 3.375H0.75" stroke="#FF3535" stroke-width="1.5" stroke-miterlimit="10" stroke-linecap="round" stroke-linejoin="round"/>
<path d="M6.75 6C8.19975 6 9.375 4.82475 9.375 3.375C9.375 1.92525 8.19975 0.75 6.75 0.75C5.30025 0.75 4.125 1.92525 4.125 3.375C4.125 4.82475 5.30025 6 6.75 6Z" stroke="#FF3535" stroke-width="1.5" stroke-miterlimit="10" stroke-linecap="round" stroke-linejoin="round"/>
<path d="M15.75 11.625H12.75" stroke="#FF3535" stroke-width="1.5" stroke-miterlimit="10" stroke-linecap="round" stroke-linejoin="round"/>
<path d="M5.25 11.625H0.75" stroke="#FF3535" stroke-width="1.5" stroke-miterlimit="10" stroke-linecap="round" stroke-linejoin="round"/>
<path d="M9.75 14.25C11.1997 14.25 12.375 13.0747 12.375 11.625C12.375 10.1753 11.1997 9 9.75 9C8.30025 9 7.125 10.1753 7.125 11.625C7.125 13.0747 8.30025 14.25 9.75 14.25Z" stroke="#FF3535" stroke-width="1.5" stroke-miterlimit="10" stroke-linecap="round" stroke-linejoin="round"/>
</svg>
