<svg width="15" height="15" viewBox="0 0 15 15" fill="none" xmlns="http://www.w3.org/2000/svg">
<path fill-rule="evenodd" clip-rule="evenodd" d="M7.49616 15C11.6362 15 14.9923 11.6422 14.9923 7.50002C14.9923 3.35787 11.6362 0 7.49616 0C3.35615 0 0 3.35787 0 7.50002C0 11.6422 3.35615 15 7.49616 15Z" fill="#262C2D"/>
<path fill-rule="evenodd" clip-rule="evenodd" d="M7.49602 12.1875C10.0835 12.1875 12.1811 10.0888 12.1811 7.49998C12.1811 4.91114 10.0835 2.81247 7.49602 2.81247C4.90851 2.81247 2.81092 4.91114 2.81092 7.49998C2.81092 10.0888 4.90851 12.1875 7.49602 12.1875Z" fill="#121515"/>
<path opacity="0.4" fill-rule="evenodd" clip-rule="evenodd" d="M7.49599 6.56228C8.0135 6.56228 8.43302 6.14254 8.43302 5.62478C8.43302 5.10701 8.0135 4.68727 7.49599 4.68727C6.97849 4.68727 6.55897 5.10701 6.55897 5.62478C6.55897 6.14254 6.97849 6.56228 7.49599 6.56228Z" fill="#636F73"/>
</svg>
