<svg width="24" height="24" viewBox="0 0 24 24" fill="none" xmlns="http://www.w3.org/2000/svg">
<g clip-path="url(#clip0_0_754)">
<path d="M14.0146 8.88051C12.9991 8.88051 12.0064 9.18165 11.162 9.74585C10.3176 10.3101 9.6595 11.112 9.27087 12.0502C8.88224 12.9884 8.78056 14.0208 8.97868 15.0169C9.1768 16.0129 9.66583 16.9278 10.3839 17.6459C11.102 18.364 12.0169 18.853 13.0129 19.0511C14.009 19.2492 15.0414 19.1475 15.9796 18.7589C16.9178 18.3703 17.7197 17.7122 18.2839 16.8678C18.8481 16.0234 19.1493 15.0307 19.1493 14.0151C19.1509 13.3404 19.0192 12.672 18.7618 12.0482C18.5043 11.4245 18.1262 10.8578 17.6491 10.3807C17.1719 9.9036 16.6052 9.52545 15.9815 9.268C15.3578 9.01054 14.6894 8.87886 14.0146 8.88051ZM14.0146 17.3589C13.3533 17.3589 12.7068 17.1628 12.1569 16.7954C11.6071 16.428 11.1785 15.9057 10.9254 15.2947C10.6723 14.6837 10.6061 14.0114 10.7351 13.3628C10.8641 12.7142 11.1826 12.1184 11.6502 11.6507C12.1179 11.1831 12.7137 10.8646 13.3623 10.7356C14.0109 10.6066 14.6833 10.6728 15.2943 10.9259C15.9052 11.179 16.4275 11.6076 16.7949 12.1574C17.1623 12.7073 17.3584 13.3538 17.3584 14.0151C17.3584 14.902 17.0061 15.7525 16.3791 16.3795C15.752 17.0066 14.9015 17.3589 14.0146 17.3589ZM20.5644 8.66761C20.5644 8.9153 20.491 9.15743 20.3534 9.36338C20.2158 9.56932 20.0202 9.72984 19.7913 9.82463C19.5625 9.91942 19.3107 9.94422 19.0678 9.89589C18.8248 9.84757 18.6017 9.7283 18.4265 9.55315C18.2514 9.37801 18.1321 9.15486 18.0838 8.91193C18.0355 8.669 18.0603 8.41719 18.1551 8.18836C18.2499 7.95952 18.4104 7.76393 18.6163 7.62632C18.8223 7.48871 19.0644 7.41526 19.3121 7.41526C19.6442 7.41526 19.9628 7.54721 20.1976 7.78207C20.4325 8.01693 20.5644 8.33547 20.5644 8.66761ZM23.9583 9.91996C23.9947 8.36307 23.414 6.85495 22.3428 5.72459C21.2184 4.63967 19.7096 4.04514 18.1474 4.07149C16.5193 3.99635 11.51 3.99635 9.8819 4.07149C8.32549 4.03779 6.81837 4.61814 5.68653 5.68702C4.61532 6.81738 4.03458 8.3255 4.071 9.88239C3.99586 11.5104 3.99586 16.5198 4.071 18.1479C4.03458 19.7048 4.61532 21.2129 5.68653 22.3433C6.81837 23.4121 8.32549 23.9925 9.8819 23.9588C11.535 24.059 16.4943 24.059 18.1474 23.9588C19.7043 23.9952 21.2124 23.4145 22.3428 22.3433C23.414 21.2129 23.9947 19.7048 23.9583 18.1479C24.0334 16.5198 24.0334 11.5104 23.9583 9.88239V9.91996ZM21.8293 19.9387C21.6593 20.3695 21.4026 20.7607 21.0751 21.0881C20.7477 21.4156 20.3565 21.6723 19.9257 21.8423C17.9816 22.2354 15.9941 22.3701 14.0146 22.2431C12.0394 22.3703 10.056 22.2356 8.11609 21.8423C7.68536 21.6723 7.29414 21.4156 6.9667 21.0881C6.63925 20.7607 6.38255 20.3695 6.21252 19.9387C5.68653 18.6113 5.79924 15.4804 5.79924 14.0277C5.79924 12.5749 5.68653 9.43154 6.21252 8.11658C6.37776 7.6816 6.63262 7.28622 6.96056 6.95612C7.28851 6.62602 7.6822 6.36857 8.11609 6.20048C10.056 5.80722 12.0394 5.67246 14.0146 5.79973C15.9941 5.67268 17.9816 5.80743 19.9257 6.20048C20.3565 6.37052 20.7477 6.62722 21.0751 6.95466C21.4026 7.28211 21.6593 7.67332 21.8293 8.10405C22.3553 9.43154 22.2301 12.5624 22.2301 14.0151C22.2301 15.4679 22.3553 18.6113 21.8293 19.9262V19.9387Z" fill="white"/>
</g>
<defs>
<clipPath id="clip0_0_754">
<rect width="24" height="24" fill="white"/>
</clipPath>
</defs>
</svg>
