<svg width="374" height="204" viewBox="0 0 374 204" fill="none" xmlns="http://www.w3.org/2000/svg">
<path d="M371.347 83.1538H372.674C373.406 83.1538 374 83.7479 374 84.4807V181.788C374 182.521 373.406 183.115 372.674 183.115H371.347V83.1538Z" fill="#446087"/>
<path d="M2.65234 203.461L1.3261 203.461C0.593635 203.461 -0.000142999 202.867 -0.000142935 202.135L-0.000137834 143.75C-0.00013777 143.017 0.593641 142.423 1.3261 142.423L2.65235 142.423L2.65234 203.461Z" fill="#446087"/>
<path d="M2.65234 122.961L1.3261 122.961C0.593635 122.961 -0.000142999 122.367 -0.000142935 121.635L-0.000137834 63.2499C-0.00013777 62.5171 0.593641 61.923 1.3261 61.923L2.65235 61.923L2.65234 122.961Z" fill="#446087"/>
<path d="M2.65234 30.0771L1.3261 30.0771C0.593638 30.0771 -0.000140615 29.4831 -0.000140551 28.7502L-0.000138155 1.32715C-0.000138091 0.594309 0.59364 0.000228702 1.3261 0.000228766L2.65235 0.000228882L2.65234 30.0771Z" fill="#446087"/>
</svg>
