<svg width="31" height="24" viewBox="0 0 31 24" fill="none" xmlns="http://www.w3.org/2000/svg">
<g clip-path="url(#clip0_0_715)">
<path d="M12.5938 22.5001H17.4375C17.9446 22.4992 18.4425 22.3957 18.882 22.2C19.3215 22.0042 19.6874 21.7229 19.9432 21.384C20.1991 21.0451 20.3362 20.6603 20.3408 20.2678C20.3455 19.8752 20.2176 19.4886 19.9698 19.1461C20.3246 18.9705 20.6259 18.7373 20.8528 18.4627C21.0797 18.188 21.2268 17.8785 21.2839 17.5555C21.341 17.2325 21.3068 16.9038 21.1836 16.5921C21.0604 16.2803 20.8512 15.993 20.5704 15.7501C20.9193 15.4499 21.1569 15.0824 21.2582 14.6864C21.3594 14.2903 21.3206 13.8805 21.1459 13.5001H28.0938C29.6961 13.5001 31 12.4906 31 11.2501C31 10.0096 29.6961 9.00006 28.0938 9.00006H16.1452L18.9856 4.87506C19.3321 4.39897 19.4434 3.84158 19.2986 3.30671C19.1538 2.77183 18.7628 2.29593 18.1985 1.96765C17.6341 1.63937 16.9349 1.48109 16.231 1.52228C15.5271 1.56347 14.8666 1.80134 14.3724 2.19156L14.3511 2.20956L7.75 7.81506V6.75006C7.75 6.55115 7.64794 6.36039 7.46626 6.21973C7.28458 6.07908 7.03818 6.00006 6.78125 6.00006H0.96875C0.711821 6.00006 0.465416 6.07908 0.283739 6.21973C0.102064 6.36039 0 6.55115 0 6.75006V21.7501C0 21.949 0.102064 22.1397 0.283739 22.2804C0.465416 22.421 0.711821 22.5001 0.96875 22.5001H6.78125C7.03818 22.5001 7.28458 22.421 7.46626 22.2804C7.64794 22.1397 7.75 21.949 7.75 21.7501V20.7136L12.1597 22.4206C12.2944 22.473 12.443 22.5003 12.5938 22.5001ZM4.84375 21.0001C4.58682 21.0001 4.34042 20.921 4.15874 20.7804C3.97706 20.6397 3.875 20.449 3.875 20.2501C3.875 20.0512 3.97706 19.8604 4.15874 19.7197C4.34042 19.5791 4.58682 19.5001 4.84375 19.5001C5.10068 19.5001 5.34708 19.5791 5.52876 19.7197C5.71044 19.8604 5.8125 20.0512 5.8125 20.2501C5.8125 20.449 5.71044 20.6397 5.52876 20.7804C5.34708 20.921 5.10068 21.0001 4.84375 21.0001ZM12.8224 21.0001L7.75 19.0366V10.0411L15.7771 3.22506C15.9439 3.09264 16.1681 3.01262 16.4065 3.00041C16.645 2.98819 16.8808 3.04463 17.0688 3.15887C17.2567 3.27312 17.3835 3.43711 17.4247 3.61934C17.466 3.80156 17.4188 3.98915 17.2922 4.14606L13.6768 9.39606C13.5976 9.51025 13.5581 9.63839 13.5621 9.76795C13.5661 9.89751 13.6135 10.024 13.6996 10.1352C13.7857 10.2463 13.9077 10.3382 14.0534 10.4019C14.1992 10.4656 14.3639 10.4989 14.5312 10.4986H28.0938C28.3507 10.4986 28.5971 10.5776 28.7788 10.7182C28.9604 10.8589 29.0625 11.0497 29.0625 11.2486C29.0625 11.4475 28.9604 11.6382 28.7788 11.7789C28.5971 11.9195 28.3507 11.9986 28.0938 11.9986H18.4062C18.1493 11.9986 17.9029 12.0776 17.7212 12.2182C17.5396 12.3589 17.4375 12.5497 17.4375 12.7486C17.4375 12.9475 17.5396 13.1382 17.7212 13.2789C17.9029 13.4195 18.1493 13.4986 18.4062 13.4986C18.6632 13.4986 18.9096 13.5776 19.0913 13.7182C19.2729 13.8589 19.375 14.0497 19.375 14.2486C19.375 14.4475 19.2729 14.6382 19.0913 14.7789C18.9096 14.9195 18.6632 14.9986 18.4062 14.9986C18.1493 14.9986 17.9029 15.0776 17.7212 15.2182C17.5396 15.3589 17.4375 15.5497 17.4375 15.7486C17.4375 15.9475 17.5396 16.1382 17.7212 16.2789C17.9029 16.4195 18.1493 16.4986 18.4062 16.4986C18.6632 16.4986 18.9096 16.5776 19.0913 16.7182C19.2729 16.8589 19.375 17.0497 19.375 17.2486C19.375 17.4475 19.2729 17.6382 19.0913 17.7789C18.9096 17.9195 18.6632 17.9986 18.4062 17.9986H17.4375C17.1806 17.9986 16.9342 18.0776 16.7525 18.2182C16.5708 18.3589 16.4688 18.5497 16.4688 18.7486C16.4688 18.9475 16.5708 19.1382 16.7525 19.2789C16.9342 19.4195 17.1806 19.4986 17.4375 19.4986C17.6944 19.4986 17.9408 19.5776 18.1225 19.7182C18.3042 19.8589 18.4062 20.0497 18.4062 20.2486C18.4062 20.4475 18.3042 20.6382 18.1225 20.7789C17.9408 20.9195 17.6944 20.9986 17.4375 20.9986H12.8224V21.0001Z" fill="#040707"/>
</g>
<defs>
<clipPath id="clip0_0_715">
<rect width="31" height="24" fill="white" transform="matrix(-1 0 0 1 31 0)"/>
</clipPath>
</defs>
</svg>
