<svg width="15" height="16" viewBox="0 0 15 16" fill="none" xmlns="http://www.w3.org/2000/svg">
<path d="M0.672812 15.3272H13.8624" stroke="#009A49" stroke-width="1.3" stroke-linecap="round" stroke-linejoin="round"/>
<path d="M2.57795 5.34815H1.40556C1.00255 5.34815 0.672812 5.67789 0.672812 6.0809V12.3972C0.672812 12.8002 1.00255 13.13 1.40556 13.13H2.57795C2.98096 13.13 3.3107 12.8002 3.3107 12.3972V6.0809C3.3107 5.67789 2.98096 5.34815 2.57795 5.34815Z" stroke="#009A49" stroke-width="1.3" stroke-linecap="round" stroke-linejoin="round"/>
<path d="M7.85336 3.01048H6.68098C6.27796 3.01048 5.94823 3.34022 5.94823 3.74323V12.397C5.94823 12.8001 6.27796 13.1298 6.68098 13.1298H7.85336C8.25638 13.1298 8.58612 12.8001 8.58612 12.397V3.74323C8.58612 3.34022 8.25638 3.01048 7.85336 3.01048Z" stroke="#009A49" stroke-width="1.3" stroke-linecap="round" stroke-linejoin="round"/>
<path d="M13.1288 0.672812H11.9564C11.5534 0.672812 11.2236 1.00255 11.2236 1.40556V12.3969C11.2236 12.7999 11.5534 13.1296 11.9564 13.1296H13.1288C13.5318 13.1296 13.8615 12.7999 13.8615 12.3969V1.40556C13.8615 1.00255 13.5318 0.672812 13.1288 0.672812Z" stroke="#009A49" stroke-width="1.3" stroke-linecap="round" stroke-linejoin="round"/>
</svg>
