<svg width="25" height="23" viewBox="0 0 25 23" fill="none" xmlns="http://www.w3.org/2000/svg">
<path d="M24.8777 1.91667V17.2501C24.8777 17.7584 24.676 18.2459 24.3172 18.6054C23.9583 18.9648 23.4715 19.1667 22.964 19.1667H6.99687L3.15997 22.5341C3.15535 22.5391 3.15013 22.5436 3.14442 22.5473C2.8008 22.8397 2.36458 23.0002 1.9137 23.0001C1.63296 22.9996 1.35574 22.9375 1.10159 22.818C0.771006 22.6654 0.491312 22.4207 0.29596 22.1131C0.100608 21.8055 -0.00213025 21.448 3.34858e-05 21.0834V1.91667C3.34858e-05 1.40834 0.201651 0.920827 0.560532 0.561381C0.919414 0.201935 1.40616 0 1.9137 0H22.964C23.4715 0 23.9583 0.201935 24.3172 0.561381C24.676 0.920827 24.8777 1.40834 24.8777 1.91667Z" fill="white"/>
</svg>
