<svg width="360" height="751" viewBox="0 0 360 751" fill="none" xmlns="http://www.w3.org/2000/svg">
<path d="M0 74.3379C0 54.5717 0 44.6885 2.59749 36.6902C7.84719 20.525 20.5144 7.85122 36.6713 2.59883C44.6656 0 54.5436 0 74.2997 0H285.7C305.456 0 315.334 0 323.329 2.59883C339.485 7.85122 352.153 20.525 357.402 36.6902C360 44.6885 360 54.5717 360 74.3379V676.121C360 695.888 360 705.771 357.402 713.769C352.153 729.934 339.485 742.608 323.329 747.86C315.334 750.459 305.456 750.459 285.7 750.459H74.2997C54.5436 750.459 44.6656 750.459 36.6713 747.86C20.5144 742.608 7.84719 729.934 2.59749 713.769C0 705.771 0 695.888 0 676.121V74.3379Z" fill="#121515"/>
</svg>
