<svg width="369" height="759" viewBox="0 0 369 759" fill="none" xmlns="http://www.w3.org/2000/svg">
<path d="M0 80.5C0 59.0953 0 48.3929 2.8128 39.7315C8.49766 22.2263 22.2149 8.50203 39.7111 2.81425C48.368 0 59.0649 0 80.4586 0H288.236C309.63 0 320.327 0 328.984 2.81425C346.48 8.50203 360.197 22.2263 365.882 39.7315C368.695 48.3929 368.695 59.0953 368.695 80.5V678.5C368.695 699.905 368.695 710.607 365.882 719.268C360.197 736.774 346.48 750.498 328.984 756.186C320.327 759 309.63 759 288.236 759H80.4586C59.0649 759 48.368 759 39.7111 756.186C22.2149 750.498 8.49766 736.774 2.8128 719.268C0 710.607 0 699.905 0 678.5V80.5Z" fill="#102948"/>
</svg>
