<svg width="24" height="24" viewBox="0 0 24 24" fill="none" xmlns="http://www.w3.org/2000/svg">
<path d="M19.02 4.97522C17.631 3.58682 15.8614 2.64148 13.9352 2.25875C12.0089 1.87602 10.0124 2.07308 8.19808 2.82502C6.38379 3.57696 4.83322 4.85 3.74243 6.48317C2.65165 8.11634 2.06964 10.0363 2.07001 12.0002C2.07001 14.6343 3.11604 17.1605 4.97813 19.0236C6.84023 20.8866 9.36595 21.9339 12 21.9352C13.3035 21.9358 14.5945 21.681 15.8 21.1852C17.0017 20.678 18.0948 19.9447 19.02 19.0252C19.9426 18.1027 20.6745 17.0076 21.1739 15.8022C21.6732 14.5968 21.9302 13.3049 21.9302 12.0002C21.9302 10.6955 21.6732 9.40361 21.1739 8.19825C20.6745 6.99289 19.9426 5.8977 19.02 4.97522ZM18.32 18.3152C16.8901 19.7513 15.0138 20.6577 13 20.8852V14.3252H14.88C15.1452 14.3252 15.3996 14.2199 15.5871 14.0323C15.7747 13.8448 15.88 13.5904 15.88 13.3252C15.88 13.06 15.7747 12.8057 15.5871 12.6181C15.3996 12.4306 15.1452 12.3252 14.88 12.3252H13V9.58522C13 9.32001 13.1054 9.06565 13.2929 8.87812C13.4804 8.69058 13.7348 8.58522 14 8.58522H15.2C15.4652 8.58522 15.7196 8.47987 15.9071 8.29233C16.0947 8.10479 16.2 7.85044 16.2 7.58522C16.2 7.32001 16.0947 7.06565 15.9071 6.87812C15.7196 6.69058 15.4652 6.58522 15.2 6.58522H13.5C12.837 6.58522 12.2011 6.84862 11.7322 7.31746C11.2634 7.7863 11 8.42218 11 9.08522V12.3252H9.13001C8.86479 12.3252 8.61044 12.4306 8.4229 12.6181C8.23536 12.8057 8.13001 13.06 8.13001 13.3252C8.13001 13.5904 8.23536 13.8448 8.4229 14.0323C8.61044 14.2199 8.86479 14.3252 9.13001 14.3252H11V20.8852C9.1429 20.6733 7.39929 19.8834 6.01546 18.6269C4.63163 17.3704 3.67752 15.7109 3.28791 13.8828C2.89829 12.0547 3.09287 10.1504 3.84414 8.43888C4.59541 6.72735 5.86541 5.2951 7.47476 4.34444C9.0841 3.39378 10.9514 2.97276 12.813 3.14084C14.6746 3.30892 16.4363 4.05762 17.8494 5.28117C19.2624 6.50472 20.2553 8.14128 20.6879 9.9597C21.1204 11.7781 20.9708 13.6865 20.26 15.4152C19.8073 16.4984 19.1484 17.4834 18.32 18.3152Z" fill="#FF3131"/>
</svg>
