<svg width="32" height="25" viewBox="0 0 32 25" fill="none" xmlns="http://www.w3.org/2000/svg">
<path d="M14.8546 9.41846C14.8546 10.3456 14.7703 11.3359 14.6018 12.3894C14.4121 13.464 14.1277 14.5175 13.7484 15.5499C13.3481 16.6035 12.8424 17.5938 12.2314 18.5209C11.5992 19.469 10.8407 20.2802 9.95575 20.9545L6.51075 18.5525C7.10072 17.8782 7.54319 17.2356 7.83818 16.6245C8.13316 16.0135 8.36494 15.4024 8.5335 14.7914C7.90139 14.6861 7.31142 14.4648 6.76359 14.1277C6.21576 13.8116 5.74168 13.4113 5.34134 12.9267C4.941 12.4631 4.62495 11.9258 4.39317 11.3148C4.1614 10.7248 4.04551 10.0927 4.04551 9.41846C4.04551 8.68099 4.193 7.98567 4.48799 7.33249C4.7619 6.70038 5.15171 6.13148 5.6574 5.62579C6.14201 5.14117 6.71091 4.75137 7.3641 4.45638C8.01728 4.18247 8.70206 4.04551 9.41846 4.04551C10.177 4.04551 10.8934 4.18247 11.5676 4.45638C12.2208 4.75137 12.8003 5.14117 13.3059 5.62579C13.7906 6.13148 14.1698 6.70038 14.4437 7.33249C14.7177 7.98567 14.8546 8.68099 14.8546 9.41846ZM27.8129 9.41846C27.8129 10.3456 27.7286 11.3359 27.5601 12.3894C27.3704 13.464 27.086 14.5175 26.7067 15.5499C26.3064 16.6035 25.7901 17.5938 25.158 18.5209C24.5259 19.469 23.7674 20.2802 22.8824 20.9545L19.469 18.5525C20.059 17.8782 20.5015 17.2356 20.7965 16.6245C21.0704 16.0135 21.2916 15.4024 21.4602 14.7914C20.8281 14.6861 20.2381 14.4648 19.6903 14.1277C19.1424 13.8116 18.6789 13.4113 18.2996 12.9267C17.8993 12.4631 17.5832 11.9258 17.3515 11.3148C17.1197 10.7248 17.0038 10.0927 17.0038 9.41846C17.0038 8.68099 17.1513 7.98567 17.4463 7.33249C17.7202 6.70038 18.11 6.13148 18.6157 5.62579C19.1003 5.14117 19.6692 4.75137 20.3224 4.45638C20.9756 4.18247 21.6603 4.04551 22.3767 4.04551C23.1353 4.04551 23.8517 4.18247 24.5259 4.45638C25.1791 4.75137 25.748 5.14117 26.2326 5.62579C26.7172 6.13148 27.107 6.70038 27.402 7.33249C27.6759 7.98567 27.8129 8.68099 27.8129 9.41846Z" fill="#222227"/>
</svg>
