<svg width="24" height="24" viewBox="0 0 24 24" fill="none" xmlns="http://www.w3.org/2000/svg">
<path d="M19.1754 4.82124L19.1754 4.82125C20.1184 5.76415 20.8665 6.88359 21.3769 8.11563C21.8873 9.34768 22.15 10.6682 22.15 12.0018C22.15 13.3354 21.8873 14.6559 21.3769 15.8879C20.8665 17.12 20.1184 18.2394 19.1754 19.1823L19.1751 19.1826C18.2297 20.1221 17.1128 20.8713 15.885 21.3896L15.8837 21.3902C14.6516 21.8969 13.3321 22.1573 11.9998 22.1567C9.30745 22.1554 6.72582 21.0849 4.8225 19.1806C2.9192 17.2763 1.85001 14.6942 1.85 12.0018L19.1754 4.82124ZM19.1754 4.82124C17.7556 3.40209 15.9468 2.43581 13.9779 2.04461M19.1754 4.82124L13.9779 2.04461M13.9779 2.04461C12.009 1.6534 9.96824 1.85483 8.11377 2.62342M13.9779 2.04461L8.11377 2.62342M8.11377 2.62342C6.25931 3.39201 4.6744 4.69324 3.55946 6.36258M8.11377 2.62342L3.55946 6.36258M3.55946 6.36258C2.44452 8.03191 1.84963 9.99436 1.85 12.0018L3.55946 6.36258ZM18.2581 18.2554L18.3644 18.3612L18.2581 18.2554C16.8817 19.6377 15.0877 20.5244 13.1569 20.7798V14.4931H14.9002C15.207 14.4931 15.5013 14.3712 15.7183 14.1543C15.9353 13.9373 16.0572 13.643 16.0572 13.3361C16.0572 13.0292 15.9353 12.7349 15.7183 12.518C15.5013 12.301 15.207 12.1791 14.9002 12.1791H13.1569V9.56978C13.1569 9.34248 13.2472 9.12448 13.408 8.96376C13.5687 8.80303 13.7867 8.71274 14.014 8.71274H15.2224C15.5293 8.71274 15.8236 8.59083 16.0406 8.37385C16.2576 8.15686 16.3795 7.86256 16.3795 7.5557C16.3795 7.24883 16.2576 6.95453 16.0406 6.73755C15.8236 6.52056 15.5293 6.39866 15.2224 6.39866H13.5105C12.803 6.39866 12.1245 6.67971 11.6242 7.17998C11.1239 7.68025 10.8429 8.35877 10.8429 9.06626V12.1791H9.1097C8.80283 12.1791 8.50853 12.301 8.29155 12.518C8.07456 12.7349 7.95266 13.0292 7.95266 13.3361C7.95266 13.643 8.07456 13.9373 8.29155 14.1543C8.50853 14.3712 8.80283 14.4931 9.1097 14.4931H10.8429V20.7796C9.06651 20.5426 7.40279 19.7705 6.07405 18.564C4.70376 17.3198 3.75898 15.6766 3.37318 13.8664C2.98738 12.0561 3.18004 10.1704 3.92397 8.47565C4.6679 6.78086 5.92548 5.36262 7.51909 4.42126C9.11269 3.47989 10.9618 3.06299 12.8052 3.22942C14.6485 3.39586 16.393 4.13723 17.7923 5.34882C19.1915 6.56041 20.1747 8.18097 20.603 9.9816C21.0313 11.7821 20.8831 13.6717 20.1795 15.3834C19.7311 16.4561 19.0785 17.4315 18.2581 18.2554Z" fill="white" stroke="white" stroke-width="0.3"/>
</svg>
