<svg width="22" height="22" viewBox="0 0 22 22" fill="none" xmlns="http://www.w3.org/2000/svg">
<path d="M21.2019 17.4772C21.2019 17.8456 21.12 18.2242 20.946 18.5926C20.7721 18.9609 20.547 19.3088 20.2502 19.6363C19.7488 20.1888 19.1963 20.5879 18.5721 20.8437C17.9581 21.0995 17.293 21.2326 16.5767 21.2326C15.533 21.2326 14.4177 20.987 13.2409 20.4856C12.0642 19.9842 10.8874 19.3088 9.72093 18.4595C8.54419 17.6 7.42884 16.6484 6.36465 15.5944C5.3107 14.5302 4.35907 13.4149 3.50977 12.2484C2.6707 11.0819 1.99535 9.91535 1.50419 8.75907C1.01302 7.59256 0.767442 6.47721 0.767442 5.41302C0.767442 4.71721 0.890232 4.05209 1.13581 3.43814C1.3814 2.81395 1.77023 2.24093 2.31256 1.7293C2.96744 1.08465 3.68372 0.767442 4.44093 0.767442C4.72744 0.767442 5.01395 0.828837 5.26977 0.951628C5.53581 1.07442 5.77116 1.2586 5.95535 1.52465L8.3293 4.8707C8.51349 5.12651 8.64651 5.36186 8.7386 5.58698C8.8307 5.80186 8.88186 6.01674 8.88186 6.21116C8.88186 6.45674 8.81023 6.70233 8.66698 6.93767C8.53395 7.17302 8.33953 7.4186 8.09395 7.66419L7.31628 8.47256C7.20372 8.58512 7.15256 8.71814 7.15256 8.88186C7.15256 8.96372 7.16279 9.03535 7.18326 9.11721C7.21395 9.19907 7.24465 9.26046 7.26512 9.32186C7.4493 9.65953 7.76651 10.0995 8.21674 10.6316C8.67721 11.1637 9.16837 11.706 9.70046 12.2484C10.253 12.7907 10.7851 13.2921 11.3274 13.7526C11.8595 14.2028 12.2995 14.5098 12.6474 14.694C12.6986 14.7144 12.76 14.7451 12.8316 14.7758C12.9135 14.8065 12.9953 14.8167 13.0874 14.8167C13.2614 14.8167 13.3944 14.7553 13.507 14.6428L14.2847 13.8753C14.5405 13.6195 14.786 13.4251 15.0214 13.3023C15.2567 13.1591 15.4921 13.0874 15.7479 13.0874C15.9423 13.0874 16.147 13.1284 16.3721 13.2205C16.5972 13.3126 16.8326 13.4456 17.0884 13.6195L20.4753 16.0242C20.7414 16.2084 20.9256 16.4233 21.0381 16.6791C21.1405 16.9349 21.2019 17.1907 21.2019 17.4772Z" stroke="#272727" stroke-width="1.5" stroke-miterlimit="10"/>
<path d="M17.6512 7.93023C17.6512 7.31628 17.1702 6.37488 16.454 5.60744C15.7991 4.9014 14.9293 4.34884 14.0698 4.34884" stroke="#272727" stroke-width="1.5" stroke-linecap="round" stroke-linejoin="round"/>
<path d="M21.2326 7.93023C21.2326 3.97023 18.0298 0.767442 14.0698 0.767442" stroke="#272727" stroke-width="1.5" stroke-linecap="round" stroke-linejoin="round"/>
</svg>
