<svg width="367" height="758" viewBox="0 0 367 758" fill="none" xmlns="http://www.w3.org/2000/svg">
<path fill-rule="evenodd" clip-rule="evenodd" d="M287.763 1.76958H79.2366C58.0302 1.76958 47.8464 1.79142 39.6545 4.45448C22.9625 9.88083 9.87575 22.9743 4.45219 39.6749C1.7905 47.871 1.76867 58.06 1.76867 79.2773V678.105C1.76867 699.322 1.7905 709.511 4.45219 717.707C9.87575 734.408 22.9625 747.501 39.6545 752.927C47.8464 755.59 58.0302 755.612 79.2366 755.612H287.763C308.97 755.612 319.154 755.59 327.345 752.927C344.037 747.501 357.124 734.408 362.548 717.707C365.209 709.511 365.231 699.322 365.231 678.105V79.2774C365.231 58.06 365.209 47.871 362.548 39.6749C357.124 22.9743 344.037 9.88083 327.345 4.45448C319.154 1.79142 308.97 1.76958 287.763 1.76958ZM2.77008 39.1281C0 47.6579 0 58.1977 0 79.2773V678.105C0 699.184 0 709.724 2.77008 718.254C8.3686 735.493 21.8775 749.009 39.108 754.61C47.6334 757.382 58.1678 757.382 79.2366 757.382H287.763C308.832 757.382 319.367 757.382 327.892 754.61C345.122 749.009 358.631 735.493 364.23 718.254C367 709.724 367 699.184 367 678.105V79.2774C367 58.1977 367 47.6579 364.23 39.1281C358.631 21.8888 345.122 8.3729 327.892 2.77151C319.367 0 308.832 0 287.763 0H79.2366C58.1678 0 47.6334 0 39.108 2.77151C21.8775 8.3729 8.3686 21.8888 2.77008 39.1281Z" fill="#446087"/>
</svg>
