<svg width="10" height="10" viewBox="0 0 10 10" fill="none" xmlns="http://www.w3.org/2000/svg">
<g clip-path="url(#clip0_126_4210)">
<path d="M4.58398 2.91634H5.41732V3.74967H4.58398V2.91634ZM4.58398 4.58301H5.41732V7.08301H4.58398V4.58301ZM5.00065 0.833008C2.70065 0.833008 0.833984 2.69967 0.833984 4.99967C0.833984 7.29967 2.70065 9.16634 5.00065 9.16634C7.30065 9.16634 9.16732 7.29967 9.16732 4.99967C9.16732 2.69967 7.30065 0.833008 5.00065 0.833008ZM5.00065 8.33301C3.16315 8.33301 1.66732 6.83717 1.66732 4.99967C1.66732 3.16217 3.16315 1.66634 5.00065 1.66634C6.83815 1.66634 8.33398 3.16217 8.33398 4.99967C8.33398 6.83717 6.83815 8.33301 5.00065 8.33301Z" fill="#B2B2B2"/>
</g>
<defs>
<clipPath id="clip0_126_4210">
<rect width="10" height="10" fill="white"/>
</clipPath>
</defs>
</svg>
