<svg width="22" height="20" viewBox="0 0 22 20" fill="none" xmlns="http://www.w3.org/2000/svg">
<path d="M15.7412 17.297C17.1215 17.3073 18.4503 16.7923 19.4701 15.8652C22.8385 12.9192 21.0358 7.00653 16.5962 6.45028C15.0099 -3.17064 1.13474 0.475835 4.42069 9.63322" stroke="#555555" stroke-width="1.5" stroke-miterlimit="10" stroke-linecap="round" stroke-linejoin="round"/>
<path d="M6.13025 10.0554C5.58431 9.77732 4.97656 9.63311 4.36882 9.64341C-0.431344 9.98333 -0.421043 16.9673 4.36882 17.3072" stroke="#555555" stroke-width="1.5" stroke-miterlimit="10" stroke-linecap="round" stroke-linejoin="round"/>
<path d="M14.9281 6.88345C15.4637 6.61563 16.0406 6.47142 16.638 6.46112" stroke="#555555" stroke-width="1.5" stroke-miterlimit="10" stroke-linecap="round" stroke-linejoin="round"/>
<path d="M8.13862 16.4321H9.16869V18.8322C9.16869 19.1824 9.61163 19.3575 9.83824 19.0897L12.3619 16.2158C12.671 15.8656 12.537 15.5772 12.0735 15.5772H11.0434V13.1771C11.0434 12.8269 10.6005 12.6517 10.3739 12.9196L7.85019 15.7935C7.54117 16.1437 7.67508 16.4321 8.13862 16.4321Z" stroke="#555555" stroke-width="1.5" stroke-miterlimit="10" stroke-linecap="round" stroke-linejoin="round"/>
</svg>
