<svg width="21" height="22" viewBox="0 0 21 22" fill="none" xmlns="http://www.w3.org/2000/svg">
<path d="M7.70239 9.79491C7.60057 9.78473 7.47839 9.78473 7.36639 9.79491C4.94311 9.71345 3.01875 7.728 3.01875 5.28436C3.01875 2.78982 5.03475 0.763636 7.53948 0.763636C10.034 0.763636 12.0602 2.78982 12.0602 5.28436C12.05 7.728 10.1257 9.71345 7.70239 9.79491Z" stroke="#FF3131" stroke-width="1.5" stroke-linecap="round" stroke-linejoin="round"/>
<path d="M15.0829 2.8C17.0582 2.8 18.6466 4.39855 18.6466 6.36364C18.6466 8.288 17.1193 9.856 15.2153 9.92727C15.1338 9.91709 15.0422 9.91709 14.9506 9.92727" stroke="#FF3131" stroke-width="1.5" stroke-linecap="round" stroke-linejoin="round"/>
<path d="M2.61164 13.552C0.147636 15.2015 0.147636 17.8895 2.61164 19.5287C5.41164 21.4022 10.0036 21.4022 12.8036 19.5287C15.2676 17.8793 15.2676 15.1913 12.8036 13.552C10.0138 11.6887 5.42182 11.6887 2.61164 13.552Z" stroke="#FF3131" stroke-width="1.5" stroke-linecap="round" stroke-linejoin="round"/>
<path d="M17.0486 19.0909C17.7817 18.9382 18.474 18.6429 19.0442 18.2051C20.6326 17.0138 20.6326 15.0487 19.0442 13.8575C18.4842 13.4298 17.802 13.1447 17.0791 12.9818" stroke="#FF3131" stroke-width="1.5" stroke-linecap="round" stroke-linejoin="round"/>
</svg>
