<svg width="34" height="34" viewBox="0 0 34 34" fill="none" xmlns="http://www.w3.org/2000/svg">
<g clip-path="url(#clip0_0_547)">
<path d="M16.2915 9.91658C17.3776 8.83047 18.6762 8.28742 20.1873 8.28742C21.6984 8.28742 22.997 8.83047 24.0831 9.91658C25.1692 11.0027 25.7122 12.3013 25.7122 13.8124C25.7122 15.3235 25.1692 16.6221 24.0831 17.7082L16.6456 25.1456C15.8665 25.9248 14.922 26.3144 13.8123 26.3144C12.7026 26.3144 11.7582 25.9248 10.979 25.1456C10.1999 24.3665 9.81028 23.422 9.81028 22.3123C9.81028 21.2026 10.1999 20.2582 10.979 19.479L17.7081 12.7499C18.204 12.2541 18.7942 12.0061 19.479 12.0061C20.1637 12.0061 20.7539 12.2541 21.2498 12.7499C21.7456 13.2457 21.9935 13.836 21.9935 14.5207C21.9935 15.2054 21.7456 15.7957 21.2498 16.2915L14.5207 23.0206L13.4582 21.9581L20.1873 15.229C20.388 15.0283 20.4881 14.7922 20.4876 14.5207C20.4871 14.2492 20.387 14.0131 20.1873 13.8124C19.9866 13.6117 19.7502 13.5113 19.4782 13.5113C19.2062 13.5113 18.9704 13.6117 18.7706 13.8124L12.0415 20.5415C11.5457 21.0373 11.2978 21.6276 11.2978 22.3123C11.2978 22.997 11.5457 23.5873 12.0415 24.0831C12.5373 24.579 13.1276 24.8269 13.8123 24.8269C14.497 24.8269 15.0873 24.579 15.5832 24.0831L23.0206 16.6457C23.7997 15.8665 24.1893 14.9221 24.1893 13.8124C24.1893 12.7027 23.7997 11.7582 23.0206 10.9791C22.2414 10.1999 21.297 9.81033 20.1873 9.81033C19.0776 9.81033 18.1331 10.1999 17.354 10.9791L9.91653 18.4165L8.85404 17.354L16.2915 9.91658Z" fill="#222227" fill-opacity="0.5"/>
</g>
<defs>
<clipPath id="clip0_0_547">
<rect width="24" height="24" fill="white" transform="translate(33.9997 17) scale(1.00173) rotate(135)"/>
</clipPath>
</defs>
</svg>
