<svg width="17" height="17" viewBox="0 0 17 17" fill="none" xmlns="http://www.w3.org/2000/svg">
<path d="M11.1062 1.42864V8.8729C11.1062 9.69177 10.4362 10.3617 9.61732 10.3617H1.42864V5.61231C1.97207 6.25996 2.80585 6.66195 3.72894 6.63962C4.48081 6.62473 5.15822 6.33441 5.66442 5.85053C5.8952 5.65698 6.08876 5.41131 6.23765 5.14332C6.50564 4.68922 6.65451 4.15322 6.63962 3.5949C6.61729 2.72392 6.2302 1.95718 5.62721 1.42864H11.1062Z" stroke="#8F12CA" stroke-width="1.3" stroke-linecap="round" stroke-linejoin="round"/>
<path d="M16.3172 10.3617V12.595C16.3172 13.8308 15.3196 14.8283 14.0839 14.8283H13.3395C13.3395 14.0094 12.6695 13.3395 11.8506 13.3395C11.0317 13.3395 10.3617 14.0094 10.3617 14.8283H7.38405C7.38405 14.0094 6.71406 13.3395 5.89519 13.3395C5.07633 13.3395 4.40634 14.0094 4.40634 14.8283H3.66192C2.42617 14.8283 1.42864 13.8308 1.42864 12.595V10.3617H9.61732C10.4362 10.3617 11.1062 9.69177 11.1062 8.8729V3.66192H12.4759C13.0119 3.66192 13.5032 3.95225 13.7712 4.41379L15.0442 6.63962H14.0839C13.6744 6.63962 13.3395 6.97461 13.3395 7.38405V9.61732C13.3395 10.0268 13.6744 10.3617 14.0839 10.3617H16.3172Z" stroke="#8F12CA" stroke-width="1.3" stroke-linecap="round" stroke-linejoin="round"/>
<path d="M5.89588 16.3168C6.71815 16.3168 7.38473 15.6502 7.38473 14.828C7.38473 14.0057 6.71815 13.3391 5.89588 13.3391C5.07361 13.3391 4.40703 14.0057 4.40703 14.828C4.40703 15.6502 5.07361 16.3168 5.89588 16.3168Z" stroke="#8F12CA" stroke-width="1.3" stroke-linecap="round" stroke-linejoin="round"/>
<path d="M11.8506 16.3168C12.6729 16.3168 13.3395 15.6502 13.3395 14.828C13.3395 14.0057 12.6729 13.3391 11.8506 13.3391C11.0283 13.3391 10.3617 14.0057 10.3617 14.828C10.3617 15.6502 11.0283 16.3168 11.8506 16.3168Z" stroke="#8F12CA" stroke-width="1.3" stroke-linecap="round" stroke-linejoin="round"/>
<path d="M16.3178 8.87255V10.3614H14.0846C13.6751 10.3614 13.3401 10.0264 13.3401 9.61698V7.3837C13.3401 6.97427 13.6751 6.63928 14.0846 6.63928H15.0449L16.3178 8.87255Z" stroke="#8F12CA" stroke-width="1.3" stroke-linecap="round" stroke-linejoin="round"/>
<path d="M6.63979 3.59477C6.65468 4.15309 6.50581 4.68909 6.23782 5.14319C6.08893 5.41119 5.89537 5.65686 5.6646 5.85041C5.15839 6.33428 4.48098 6.62461 3.72911 6.6395C2.80602 6.66183 1.97224 6.25983 1.42881 5.61218C1.32459 5.50052 1.23526 5.37398 1.15338 5.24742C0.863051 4.80821 0.699274 4.28713 0.684385 3.72881C0.662053 2.79083 1.07893 1.93472 1.74891 1.3764C2.25512 0.959523 2.89531 0.698979 3.59507 0.684091C4.37672 0.669202 5.0914 0.952084 5.62738 1.42852C6.23037 1.95706 6.61746 2.7238 6.63979 3.59477Z" stroke="#8F12CA" stroke-width="1.3" stroke-miterlimit="10" stroke-linecap="round" stroke-linejoin="round"/>
<path d="M2.50012 3.68439L3.252 4.39901L4.80782 2.89525" stroke="#8F12CA" stroke-width="1.3" stroke-linecap="round" stroke-linejoin="round"/>
</svg>
